{
	"patcher" : 	{
		"fileversion" : 1,
		"appversion" : 		{
			"major" : 8,
			"minor" : 5,
			"revision" : 0,
			"architecture" : "x64",
			"modernui" : 1
		}
,
		"classnamespace" : "box",
		"rect" : [ 80.0, 90.0, 640.0, 480.0 ],
		"bglocked" : 0,
		"openinpresentation" : 0,
		"default_fontsize" : 12.0,
		"default_fontface" : 0,
		"default_fontname" : "Arial",
		"gridonopen" : 1,
		"gridsize" : [ 15.0, 15.0 ],
		"gridsnaponopen" : 1,
		"objectsnaponopen" : 1,
		"statusbarvisible" : 2,
		"toolbarvisible" : 1,
		"lefttoolbarpinned" : 0,
		"toptoolbarpinned" : 0,
		"righttoolbarpinned" : 0,
		"bottomtoolbarpinned" : 0,
		"toolbars_unpinned_last_save" : 0,
		"tallnewobj" : 0,
		"boxanimatetime" : 200,
		"enablehscroll" : 1,
		"enablevscroll" : 1,
		"devicewidth" : 0.0,
		"description" : "",
		"digest" : "",
		"tags" : "",
		"style" : "",
		"subpatcher_template" : "",
		"assistshowspatchername" : 0,
		"boxes" : [
			{ "box" : { "id" : "obj-1", "maxclass" : "newobj", "text" : "fftin~ 1", "numinlets" : 1, "numoutlets" : 3, "outlettype" : [ "signal", "signal", "signal" ], "patching_rect" : [ 30.0, 40.0, 56.0, 22.0 ] } },
			{ "box" : { "id" : "obj-2", "maxclass" : "newobj", "text" : "fftin~ 2", "numinlets" : 1, "numoutlets" : 3, "outlettype" : [ "signal", "signal", "signal" ], "patching_rect" : [ 230.0, 40.0, 56.0, 22.0 ] } },
			{ "box" : { "id" : "obj-3", "maxclass" : "newobj", "text" : "in 3", "numinlets" : 0, "numoutlets" : 1, "outlettype" : [ "signal" ], "patching_rect" : [ 430.0, 40.0, 32.0, 22.0 ] } },
			{ "box" : { "id" : "obj-4", "maxclass" : "newobj", "text" : "cartopol~", "numinlets" : 2, "numoutlets" : 2, "outlettype" : [ "signal", "signal" ], "patching_rect" : [ 30.0, 90.0, 66.0, 22.0 ] } },
			{ "box" : { "id" : "obj-5", "maxclass" : "newobj", "text" : "cartopol~", "numinlets" : 2, "numoutlets" : 2, "outlettype" : [ "signal", "signal" ], "patching_rect" : [ 230.0, 90.0, 66.0, 22.0 ] } },
			{ "box" : { "id" : "obj-6", "maxclass" : "newobj", "text" : "-~", "numinlets" : 2, "numoutlets" : 1, "outlettype" : [ "signal" ], "patching_rect" : [ 230.0, 150.0, 36.0, 22.0 ] } },
			{ "box" : { "id" : "obj-7", "maxclass" : "newobj", "text" : "*~", "numinlets" : 2, "numoutlets" : 1, "outlettype" : [ "signal" ], "patching_rect" : [ 230.0, 190.0, 36.0, 22.0 ] } },
			{ "box" : { "id" : "obj-8", "maxclass" : "newobj", "text" : "+~", "numinlets" : 2, "numoutlets" : 1, "outlettype" : [ "signal" ], "patching_rect" : [ 110.0, 235.0, 36.0, 22.0 ] } },
			{ "box" : { "id" : "obj-9", "maxclass" : "newobj", "text" : "-~", "numinlets" : 2, "numoutlets" : 1, "outlettype" : [ "signal" ], "patching_rect" : [ 320.0, 150.0, 36.0, 22.0 ] } },
			{ "box" : { "id" : "obj-10", "maxclass" : "newobj", "text" : "*~", "numinlets" : 2, "numoutlets" : 1, "outlettype" : [ "signal" ], "patching_rect" : [ 320.0, 190.0, 36.0, 22.0 ] } },
			{ "box" : { "id" : "obj-11", "maxclass" : "newobj", "text" : "+~", "numinlets" : 2, "numoutlets" : 1, "outlettype" : [ "signal" ], "patching_rect" : [ 320.0, 235.0, 36.0, 22.0 ] } },
			{ "box" : { "id" : "obj-12", "maxclass" : "newobj", "text" : "poltocar~", "numinlets" : 2, "numoutlets" : 2, "outlettype" : [ "signal", "signal" ], "patching_rect" : [ 110.0, 290.0, 66.0, 22.0 ] } },
			{ "box" : { "id" : "obj-13", "maxclass" : "newobj", "text" : "fftout~ 1", "numinlets" : 3, "numoutlets" : 1, "outlettype" : [ "signal" ], "patching_rect" : [ 110.0, 345.0, 62.0, 22.0 ] } },
			{ "box" : { "id" : "obj-c1", "maxclass" : "comment", "text" : "A: magnitude/phase", "numinlets" : 1, "numoutlets" : 0, "patching_rect" : [ 30.0, 116.0, 130.0, 20.0 ] } },
			{ "box" : { "id" : "obj-c2", "maxclass" : "comment", "text" : "B: magnitude/phase", "numinlets" : 1, "numoutlets" : 0, "patching_rect" : [ 230.0, 116.0, 130.0, 20.0 ] } },
			{ "box" : { "id" : "obj-c3", "maxclass" : "comment", "text" : "mag = A + (B-A)*morph", "numinlets" : 1, "numoutlets" : 0, "patching_rect" : [ 150.0, 200.0, 160.0, 20.0 ] } },
			{ "box" : { "id" : "obj-c4", "maxclass" : "comment", "text" : "phase = A + (B-A)*morph", "numinlets" : 1, "numoutlets" : 0, "patching_rect" : [ 365.0, 235.0, 170.0, 20.0 ] } }
		],
		"lines" : [
			{ "patchline" : { "source" : [ "obj-1", 0 ], "destination" : [ "obj-4", 0 ] } },
			{ "patchline" : { "source" : [ "obj-1", 1 ], "destination" : [ "obj-4", 1 ] } },
			{ "patchline" : { "source" : [ "obj-2", 0 ], "destination" : [ "obj-5", 0 ] } },
			{ "patchline" : { "source" : [ "obj-2", 1 ], "destination" : [ "obj-5", 1 ] } },
			{ "patchline" : { "source" : [ "obj-5", 0 ], "destination" : [ "obj-6", 0 ] } },
			{ "patchline" : { "source" : [ "obj-4", 0 ], "destination" : [ "obj-6", 1 ] } },
			{ "patchline" : { "source" : [ "obj-6", 0 ], "destination" : [ "obj-7", 0 ] } },
			{ "patchline" : { "source" : [ "obj-3", 0 ], "destination" : [ "obj-7", 1 ] } },
			{ "patchline" : { "source" : [ "obj-7", 0 ], "destination" : [ "obj-8", 0 ] } },
			{ "patchline" : { "source" : [ "obj-4", 0 ], "destination" : [ "obj-8", 1 ] } },
			{ "patchline" : { "source" : [ "obj-5", 1 ], "destination" : [ "obj-9", 0 ] } },
			{ "patchline" : { "source" : [ "obj-4", 1 ], "destination" : [ "obj-9", 1 ] } },
			{ "patchline" : { "source" : [ "obj-9", 0 ], "destination" : [ "obj-10", 0 ] } },
			{ "patchline" : { "source" : [ "obj-3", 0 ], "destination" : [ "obj-10", 1 ] } },
			{ "patchline" : { "source" : [ "obj-10", 0 ], "destination" : [ "obj-11", 0 ] } },
			{ "patchline" : { "source" : [ "obj-4", 1 ], "destination" : [ "obj-11", 1 ] } },
			{ "patchline" : { "source" : [ "obj-8", 0 ], "destination" : [ "obj-12", 0 ] } },
			{ "patchline" : { "source" : [ "obj-11", 0 ], "destination" : [ "obj-12", 1 ] } },
			{ "patchline" : { "source" : [ "obj-12", 0 ], "destination" : [ "obj-13", 0 ] } },
			{ "patchline" : { "source" : [ "obj-12", 1 ], "destination" : [ "obj-13", 1 ] } }
		]
	}

}
